<?xml version="1.0" encoding="UTF-8" standalone="no"?>
<!-- Generator: Adobe Illustrator 16.0.0, SVG Export Plug-In . SVG Version: 6.00 Build 0)  -->

<svg
   xmlns:dc="http://purl.org/dc/elements/1.1/"
   xmlns:cc="http://creativecommons.org/ns#"
   xmlns:rdf="http://www.w3.org/1999/02/22-rdf-syntax-ns#"
   xmlns:svg="http://www.w3.org/2000/svg"
   xmlns="http://www.w3.org/2000/svg"
   xmlns:sodipodi="http://sodipodi.sourceforge.net/DTD/sodipodi-0.dtd"
   xmlns:inkscape="http://www.inkscape.org/namespaces/inkscape"
   version="1.1"
   id="Capa_1"
   x="0px"
   y="0px"
   width="585.918px"
   height="585.918px"
   viewBox="0 0 585.918 585.918"
   style="enable-background:new 0 0 585.918 585.918;"
   xml:space="preserve"
   sodipodi:docname="docx.svg"
   inkscape:version="0.92.3 (2405546, 2018-03-11)"><metadata
   id="metadata61"><rdf:RDF><cc:Work
       rdf:about=""><dc:format>image/svg+xml</dc:format><dc:type
         rdf:resource="http://purl.org/dc/dcmitype/StillImage" /></cc:Work></rdf:RDF></metadata><defs
   id="defs59" /><sodipodi:namedview
   pagecolor="#ffffff"
   bordercolor="#666666"
   borderopacity="1"
   objecttolerance="10"
   gridtolerance="10"
   guidetolerance="10"
   inkscape:pageopacity="0"
   inkscape:pageshadow="2"
   inkscape:window-width="1366"
   inkscape:window-height="715"
   id="namedview57"
   showgrid="false"
   inkscape:zoom="0.40278672"
   inkscape:cx="292.95901"
   inkscape:cy="292.95901"
   inkscape:window-x="0"
   inkscape:window-y="27"
   inkscape:window-maximized="1"
   inkscape:current-layer="Capa_1" />
<g
   id="g24"
   style="fill:#10659c;fill-opacity:1">
	<path
   d="M62.308,274.521c-3.226,0.056-5.323,0.398-6.554,0.737v46.331c1.231,0.337,3.237,0.378,5.042,0.409   c13.263,0.347,22.05-7.621,22.05-24.87C82.943,282.132,74.925,274.329,62.308,274.521z"
   id="path2"
   style="fill:#10659c;fill-opacity:1" />
	<path
   d="M357.396,535.33c0.776,0.047,1.542,0.109,2.329,0.109h177.39c20.75,0,37.627-16.883,37.627-37.627V86.597   c0-20.743-16.877-37.628-37.627-37.628h-177.39c-0.781,0-1.553,0.077-2.329,0.113V0L11.176,46.206v492.311l346.22,47.401V535.33z    M357.396,237.953h187.009V365.17H357.396V237.953z M483.35,227.202H357.396v-50.308H483.35V227.202z M537.115,513.949h-177.39   c-0.792,0-1.563-0.127-2.329-0.243V375.921H553.24v121.901C553.24,506.715,546.008,513.949,537.115,513.949z M359.726,70.476   h177.39c8.893,0,16.125,7.236,16.125,16.126v140.6h-59.14v-61.059H357.396V70.711C358.162,70.599,358.929,70.476,359.726,70.476z    M87.786,325.94c-7.003,6.163-17.512,8.861-30.129,8.51c-7.455-0.199-12.681-0.861-16.21-1.479v-68.836   c5.207-1.058,12.05-1.746,19.349-1.918c12.284-0.31,20.379,1.953,26.783,7.076c6.961,5.489,11.368,14.416,11.368,27.304   C98.947,310.575,94.232,320.142,87.786,325.94z M138.853,337.159c-20.943-0.578-32.924-17.365-32.924-38.269   c0-22,13.217-38.77,34.113-39.292c22.352-0.559,34.864,16.819,34.864,38.059C174.905,322.881,160.091,337.762,138.853,337.159z    M226.273,324.634c5.499,0.104,11.664-0.981,15.31-2.347l2.8,14.263c-3.415,1.575-11.037,3.149-20.851,2.877   c-27.223-0.767-40.879-17.791-40.879-39.821c0-26.39,18.717-41.544,42.675-42.141c9.47-0.236,16.743,1.488,20.044,3.092   l-3.79,14.507c-3.759-1.494-8.956-2.848-15.433-2.745c-14.311,0.221-25.227,8.863-25.227,26.289   C200.924,314.288,210.213,324.328,226.273,324.634z M302.445,340.413l-7.98-15.265c-3.251-5.838-5.322-10.164-7.766-14.981h-0.265   c-1.806,4.761-3.986,9.019-6.664,14.719l-7.129,14.704l-21.733-0.594l24.4-40.866l-23.539-39.999l21.887-0.527l7.514,14.858   c2.564,4.982,4.483,9.002,6.554,13.648h0.252c2.082-5.293,3.758-9.005,5.961-13.836l7.457-15.341l23.16-0.56l-25.261,41.289   l26.614,43.382L302.445,340.413z"
   id="path4"
   style="fill:#10659c;fill-opacity:1" />
	<path
   d="M139.605,273.097c-10.875,0.171-17.142,11.061-17.142,25.495c0,14.53,6.478,24.897,17.25,25.103   c11.047,0.21,17.438-10.715,17.438-25.497C157.151,284.547,150.863,272.919,139.605,273.097z"
   id="path6"
   style="fill:#10659c;fill-opacity:1" />
	<path
   d="M386.855,253.628c3.958,0,7.17,3.207,7.17,7.165c0,3.955-3.212,7.165-7.17,7.165s-7.16-3.21-7.16-7.165   C379.695,256.835,382.897,253.628,386.855,253.628z"
   id="path8"
   style="fill:#10659c;fill-opacity:1" />
	<rect
   x="405.019"
   y="258.105"
   width="109.304"
   height="5.375"
   id="rect10"
   style="fill:#10659c;fill-opacity:1" />
	<path
   d="M386.855,279.613c3.958,0,7.17,3.207,7.17,7.165c0,3.955-3.212,7.168-7.17,7.168s-7.16-3.213-7.16-7.168   C379.695,282.82,382.897,279.613,386.855,279.613z"
   id="path12"
   style="fill:#10659c;fill-opacity:1" />
	<rect
   x="405.019"
   y="284.085"
   width="109.304"
   height="5.375"
   id="rect14"
   style="fill:#10659c;fill-opacity:1" />
	<path
   d="M386.855,307.562c3.958,0,7.17,3.212,7.17,7.165c0,3.958-3.212,7.167-7.17,7.167s-7.16-3.209-7.16-7.167   C379.695,310.774,382.897,307.562,386.855,307.562z"
   id="path16"
   style="fill:#10659c;fill-opacity:1" />
	<rect
   x="405.019"
   y="312.04"
   width="109.304"
   height="5.375"
   id="rect18"
   style="fill:#10659c;fill-opacity:1" />
	<path
   d="M386.855,333.993c3.958,0,7.17,3.208,7.17,7.165c0,3.958-3.212,7.166-7.17,7.166s-7.16-3.208-7.16-7.166   C379.695,337.201,382.897,333.993,386.855,333.993z"
   id="path20"
   style="fill:#10659c;fill-opacity:1" />
	<rect
   x="405.019"
   y="338.466"
   width="109.304"
   height="5.375"
   id="rect22"
   style="fill:#10659c;fill-opacity:1" />
</g>
<g
   id="g26">
</g>
<g
   id="g28">
</g>
<g
   id="g30">
</g>
<g
   id="g32">
</g>
<g
   id="g34">
</g>
<g
   id="g36">
</g>
<g
   id="g38">
</g>
<g
   id="g40">
</g>
<g
   id="g42">
</g>
<g
   id="g44">
</g>
<g
   id="g46">
</g>
<g
   id="g48">
</g>
<g
   id="g50">
</g>
<g
   id="g52">
</g>
<g
   id="g54">
</g>
</svg>