<?xml version="1.0" encoding="UTF-8" standalone="no"?>
<!-- Generator: Adobe Illustrator 16.0.0, SVG Export Plug-In . SVG Version: 6.00 Build 0)  -->

<svg
   xmlns:dc="http://purl.org/dc/elements/1.1/"
   xmlns:cc="http://creativecommons.org/ns#"
   xmlns:rdf="http://www.w3.org/1999/02/22-rdf-syntax-ns#"
   xmlns:svg="http://www.w3.org/2000/svg"
   xmlns="http://www.w3.org/2000/svg"
   xmlns:sodipodi="http://sodipodi.sourceforge.net/DTD/sodipodi-0.dtd"
   xmlns:inkscape="http://www.inkscape.org/namespaces/inkscape"
   version="1.1"
   id="Capa_1"
   x="0px"
   y="0px"
   width="588.601px"
   height="588.6px"
   viewBox="0 0 588.601 588.6"
   style="enable-background:new 0 0 588.601 588.6;"
   xml:space="preserve"
   sodipodi:docname="pptx.svg"
   inkscape:version="0.92.3 (2405546, 2018-03-11)"><metadata
   id="metadata53"><rdf:RDF><cc:Work
       rdf:about=""><dc:format>image/svg+xml</dc:format><dc:type
         rdf:resource="http://purl.org/dc/dcmitype/StillImage" /></cc:Work></rdf:RDF></metadata><defs
   id="defs51" /><sodipodi:namedview
   pagecolor="#ffffff"
   bordercolor="#666666"
   borderopacity="1"
   objecttolerance="10"
   gridtolerance="10"
   guidetolerance="10"
   inkscape:pageopacity="0"
   inkscape:pageshadow="2"
   inkscape:window-width="1366"
   inkscape:window-height="715"
   id="namedview49"
   showgrid="false"
   inkscape:zoom="0.40095143"
   inkscape:cx="294.30051"
   inkscape:cy="294.29999"
   inkscape:window-x="0"
   inkscape:window-y="27"
   inkscape:window-maximized="1"
   inkscape:current-layer="Capa_1" />
<g
   id="g16"
   style="fill:#d04727;fill-opacity:0.98039216">
	<path
   d="M577.373,86.999c0-20.838-16.949-37.8-37.8-37.8h-178.2c-0.786,0-1.561,0.076-2.342,0.124V0L11.228,46.417v494.564   L359.031,588.6v-50.814c0.781,0.053,1.551,0.115,2.342,0.115h178.2c20.851,0,37.8-16.964,37.8-37.8V86.999z M83.571,315.352   c-5.809,6.027-14.31,8.674-24.121,8.605c-2.149-0.01-4.092-0.147-5.59-0.4v29.109l-15.957-0.485v-79.271   c4.925-1.131,11.907-2.101,21.876-2.457c10.249-0.366,17.648,1.582,22.673,5.854c4.838,4.071,8.124,10.939,8.124,19.147   C90.577,303.666,88.085,310.626,83.571,315.352z M152.353,315.352c-6.455,6.359-15.905,9.144-26.768,9.07   c-2.405-0.011-4.548-0.158-6.209-0.422v30.639l-17.677-0.538v-83.395c5.456-1.205,13.184-2.236,24.248-2.634   c11.362-0.406,19.585,1.635,25.165,6.128c5.376,4.282,9.018,11.527,9.018,20.173C160.123,303.022,157.357,310.384,152.353,315.352z    M235.301,282.553l-25.428,0.586v74.226l-20.451-0.616v-73.141l-23.445,0.543v-16.857l69.324-2.462V282.553z M302.205,360.155   l-9.345-17.861c-3.797-6.824-6.223-11.87-9.094-17.481h-0.298c-2.099,5.553-4.648,10.526-7.771,17.176l-8.29,17.117l-25.151-0.765   l28.242-47.523l-27.253-46.267l25.331-0.902l8.744,17.221c2.995,5.779,5.252,10.465,7.644,15.868l0.319-0.011   c2.405-6.196,4.379-10.544,6.961-16.208l8.722-18.02l27.295-0.973l-29.742,48.626l31.335,50.825L302.205,360.155z M555.773,500.101   c0,8.928-7.268,16.2-16.2,16.2h-178.2c-0.796,0-1.571-0.116-2.342-0.232V295.513c18.088,19.828,44.092,32.284,73.048,32.284   c33.402,0,62.881-16.586,80.811-41.932l-81.264-50.97l-72.595,31.838v-11.789l66.298-29.075v-95.713   c-26.22,1.769-49.617,13.758-66.298,31.978V71.042c0.771-0.114,1.54-0.243,2.342-0.243h178.2c8.933,0,16.2,7.27,16.2,16.2V500.101z   "
   id="path2"
   style="fill:#d04727;fill-opacity:0.98039216" />
	<path
   d="M60.645,284.386c-3.343,0.084-5.6,0.506-6.784,0.889v24.033c1.395,0.354,3.111,0.475,5.487,0.464   c8.817-0.042,14.32-5.094,14.32-13.562C73.667,288.597,68.932,284.175,60.645,284.386z"
   id="path4"
   style="fill:#d04727;fill-opacity:0.98039216" />
	<path
   d="M126.9,282.738c-3.721,0.098-6.22,0.541-7.531,0.955v25.299c1.548,0.38,3.449,0.496,6.085,0.485   c9.78-0.042,15.881-5.368,15.881-14.286C141.342,287.165,136.076,282.517,126.9,282.738z"
   id="path6"
   style="fill:#d04727;fill-opacity:0.98039216" />
	<path
   d="M438.07,128.806v94.954l82.539,51.785c7.89-14.218,12.414-30.544,12.414-47.946   C533.023,174.285,490.857,130.95,438.07,128.806z"
   id="path8"
   style="fill:#d04727;fill-opacity:0.98039216" />
	<rect
   x="374.346"
   y="365.597"
   width="108"
   height="16.115"
   id="rect10"
   style="fill:#d04727;fill-opacity:0.98039216" />
	<rect
   x="374.346"
   y="406.625"
   width="108"
   height="16.126"
   id="rect12"
   style="fill:#d04727;fill-opacity:0.98039216" />
	<rect
   x="374.346"
   y="447.019"
   width="108"
   height="16.126"
   id="rect14"
   style="fill:#d04727;fill-opacity:0.98039216" />
</g>
<g
   id="g18">
</g>
<g
   id="g20">
</g>
<g
   id="g22">
</g>
<g
   id="g24">
</g>
<g
   id="g26">
</g>
<g
   id="g28">
</g>
<g
   id="g30">
</g>
<g
   id="g32">
</g>
<g
   id="g34">
</g>
<g
   id="g36">
</g>
<g
   id="g38">
</g>
<g
   id="g40">
</g>
<g
   id="g42">
</g>
<g
   id="g44">
</g>
<g
   id="g46">
</g>
</svg>