<svg height="512pt" viewBox="-79 0 512 512" width="512pt" xmlns="http://www.w3.org/2000/svg"><path d="m353.101562 485.515625h-353.101562v-485.515625h273.65625l79.445312 79.449219zm0 0" fill="#e3e4d8"/><path d="m273.65625 0v79.449219h79.445312zm0 0" fill="#d0cebd"/><path d="m0 353.101562h353.101562v158.898438h-353.101562zm0 0" fill="#4e74ba"/><g fill="#a09893"><path d="m123.585938 229.515625h-70.621094c-4.871094 0-8.828125-3.953125-8.828125-8.824219 0-4.875 3.957031-8.828125 8.828125-8.828125h70.621094c4.875 0 8.828124 3.953125 8.828124 8.828125 0 4.871094-3.953124 8.824219-8.828124 8.824219zm0 0"/><path d="m247.171875 229.515625h-88.273437c-4.875 0-8.828126-3.953125-8.828126-8.824219 0-4.875 3.953126-8.828125 8.828126-8.828125h88.273437c4.875 0 8.828125 3.953125 8.828125 8.828125 0 4.871094-3.953125 8.824219-8.828125 8.824219zm0 0"/><path d="m220.691406 264.828125h-97.105468c-4.871094 0-8.828126-3.957031-8.828126-8.828125s3.957032-8.828125 8.828126-8.828125h97.105468c4.871094 0 8.824219 3.957031 8.824219 8.828125s-3.953125 8.828125-8.824219 8.828125zm0 0"/><path d="m300.136719 229.515625h-17.652344c-4.875 0-8.828125-3.953125-8.828125-8.824219 0-4.875 3.953125-8.828125 8.828125-8.828125h17.652344c4.875 0 8.828125 3.953125 8.828125 8.828125 0 4.871094-3.953125 8.824219-8.828125 8.824219zm0 0"/><path d="m300.136719 264.828125h-44.136719c-4.871094 0-8.828125-3.957031-8.828125-8.828125s3.957031-8.828125 8.828125-8.828125h44.136719c4.875 0 8.828125 3.957031 8.828125 8.828125s-3.953125 8.828125-8.828125 8.828125zm0 0"/><path d="m88.277344 264.828125h-35.3125c-4.871094 0-8.828125-3.957031-8.828125-8.828125s3.957031-8.828125 8.828125-8.828125h35.3125c4.871094 0 8.824218 3.957031 8.824218 8.828125s-3.953124 8.828125-8.824218 8.828125zm0 0"/><path d="m123.585938 300.136719h-70.621094c-4.871094 0-8.828125-3.953125-8.828125-8.828125 0-4.871094 3.957031-8.824219 8.828125-8.824219h70.621094c4.875 0 8.828124 3.953125 8.828124 8.824219 0 4.875-3.953124 8.828125-8.828124 8.828125zm0 0"/><path d="m247.171875 300.136719h-88.273437c-4.875 0-8.828126-3.953125-8.828126-8.828125 0-4.871094 3.953126-8.824219 8.828126-8.824219h88.273437c4.875 0 8.828125 3.953125 8.828125 8.824219 0 4.875-3.953125 8.828125-8.828125 8.828125zm0 0"/><path d="m300.136719 300.136719h-17.652344c-4.875 0-8.828125-3.953125-8.828125-8.828125 0-4.871094 3.953125-8.824219 8.828125-8.824219h17.652344c4.875 0 8.828125 3.953125 8.828125 8.824219 0 4.875-3.953125 8.828125-8.828125 8.828125zm0 0"/><path d="m300.136719 194.207031h-70.621094c-4.871094 0-8.824219-3.953125-8.824219-8.828125 0-4.871094 3.953125-8.828125 8.824219-8.828125h70.621094c4.875 0 8.828125 3.957031 8.828125 8.828125 0 4.875-3.953125 8.828125-8.828125 8.828125zm0 0"/><path d="m194.207031 194.207031h-88.277343c-4.871094 0-8.828126-3.953125-8.828126-8.828125 0-4.871094 3.957032-8.828125 8.828126-8.828125h88.277343c4.871094 0 8.828125 3.957031 8.828125 8.828125 0 4.875-3.957031 8.828125-8.828125 8.828125zm0 0"/><path d="m229.515625 158.898438h-97.101563c-4.875 0-8.828124-3.957032-8.828124-8.828126 0-4.875 3.953124-8.828124 8.828124-8.828124h97.101563c4.875 0 8.828125 3.953124 8.828125 8.828124 0 4.871094-3.953125 8.828126-8.828125 8.828126zm0 0"/><path d="m70.621094 194.207031h-17.65625c-4.871094 0-8.828125-3.953125-8.828125-8.828125 0-4.871094 3.957031-8.828125 8.828125-8.828125h17.65625c4.871094 0 8.828125 3.957031 8.828125 8.828125 0 4.875-3.957031 8.828125-8.828125 8.828125zm0 0"/><path d="m97.101562 158.898438h-44.136718c-4.871094 0-8.828125-3.957032-8.828125-8.828126 0-4.875 3.957031-8.828124 8.828125-8.828124h44.136718c4.875 0 8.828126 3.953124 8.828126 8.828124 0 4.871094-3.953126 8.828126-8.828126 8.828126zm0 0"/><path d="m300.136719 158.898438h-35.308594c-4.875 0-8.828125-3.957032-8.828125-8.828126 0-4.875 3.953125-8.828124 8.828125-8.828124h35.308594c4.875 0 8.828125 3.953124 8.828125 8.828124 0 4.871094-3.953125 8.828126-8.828125 8.828126zm0 0"/></g><path d="m105.929688 397.242188h-52.964844c-4.871094 0-8.828125-3.957032-8.828125-8.828126 0-4.875 3.957031-8.828124 8.828125-8.828124h52.964844c4.875 0 8.828124 3.953124 8.828124 8.828124 0 4.871094-3.953124 8.828126-8.828124 8.828126zm0 0" fill="#fff"/><path d="m79.449219 485.515625c-4.875 0-8.828125-3.953125-8.828125-8.824219v-88.277344c0-4.875 3.953125-8.828124 8.828125-8.828124 4.871093 0 8.828125 3.953124 8.828125 8.828124v88.277344c0 4.871094-3.957032 8.824219-8.828125 8.824219zm0 0" fill="#fff"/><path d="m150.058594 485.515625c-1.542969 0-3.113282-.40625-4.527344-1.261719-4.183594-2.507812-5.535156-7.925781-3.027344-12.109375l52.964844-88.277343c2.507812-4.183594 7.9375-5.535157 12.113281-3.027344 4.183594 2.507812 5.535157 7.925781 3.027344 12.113281l-52.964844 88.273437c-1.660156 2.761719-4.582031 4.289063-7.585937 4.289063zm0 0" fill="#fff"/><path d="m203.042969 485.515625c-3 0-5.921875-1.527344-7.574219-4.28125l-52.964844-88.273437c-2.507812-4.183594-1.15625-9.605469 3.027344-12.113282 4.175781-2.515625 9.605469-1.15625 12.113281 3.027344l52.964844 88.277344c2.507813 4.183594 1.15625 9.605468-3.027344 12.113281-1.421875.84375-2.992187 1.25-4.539062 1.25zm0 0" fill="#fff"/><path d="m300.136719 397.242188h-52.964844c-4.871094 0-8.828125-3.957032-8.828125-8.828126 0-4.875 3.957031-8.828124 8.828125-8.828124h52.964844c4.875 0 8.828125 3.953124 8.828125 8.828124 0 4.871094-3.953125 8.828126-8.828125 8.828126zm0 0" fill="#fff"/><path d="m273.65625 485.515625c-4.875 0-8.828125-3.953125-8.828125-8.824219v-88.277344c0-4.875 3.953125-8.828124 8.828125-8.828124 4.871094 0 8.828125 3.953124 8.828125 8.828124v88.277344c0 4.871094-3.957031 8.824219-8.828125 8.824219zm0 0" fill="#fff"/></svg>