<?xml version="1.0" encoding="UTF-8" standalone="no"?>
<!-- Generator: Adobe Illustrator 16.0.0, SVG Export Plug-In . SVG Version: 6.00 Build 0)  -->

<svg
   xmlns:dc="http://purl.org/dc/elements/1.1/"
   xmlns:cc="http://creativecommons.org/ns#"
   xmlns:rdf="http://www.w3.org/1999/02/22-rdf-syntax-ns#"
   xmlns:svg="http://www.w3.org/2000/svg"
   xmlns="http://www.w3.org/2000/svg"
   xmlns:sodipodi="http://sodipodi.sourceforge.net/DTD/sodipodi-0.dtd"
   xmlns:inkscape="http://www.inkscape.org/namespaces/inkscape"
   version="1.1"
   id="Capa_1"
   x="0px"
   y="0px"
   width="585.918px"
   height="585.918px"
   viewBox="0 0 585.918 585.918"
   style="enable-background:new 0 0 585.918 585.918;"
   xml:space="preserve"
   sodipodi:docname="txt.svg"
   inkscape:version="0.92.3 (2405546, 2018-03-11)"><metadata
   id="metadata41"><rdf:RDF><cc:Work
       rdf:about=""><dc:format>image/svg+xml</dc:format><dc:type
         rdf:resource="http://purl.org/dc/dcmitype/StillImage" /></cc:Work></rdf:RDF></metadata><defs
   id="defs39" /><sodipodi:namedview
   pagecolor="#ffffff"
   bordercolor="#666666"
   borderopacity="1"
   objecttolerance="10"
   gridtolerance="10"
   guidetolerance="10"
   inkscape:pageopacity="0"
   inkscape:pageshadow="2"
   inkscape:window-width="1366"
   inkscape:window-height="715"
   id="namedview37"
   showgrid="false"
   inkscape:zoom="0.40278672"
   inkscape:cx="292.95901"
   inkscape:cy="292.95901"
   inkscape:window-x="0"
   inkscape:window-y="27"
   inkscape:window-maximized="1"
   inkscape:current-layer="Capa_1" />
<g
   id="g4"
   style="fill:#535353;fill-opacity:1">
	<path
   d="M357.396,535.33c0.776,0.042,1.542,0.109,2.329,0.109h177.39c20.75,0,37.627-16.883,37.627-37.627V86.597   c0-20.743-16.877-37.628-37.627-37.628h-177.39c-0.781,0-1.553,0.077-2.329,0.113V0L11.176,46.206v492.311l346.22,47.401V535.33z    M359.726,70.476h177.39c8.893,0,16.125,7.236,16.125,16.126v411.22c0,8.888-7.232,16.127-16.125,16.127h-177.39   c-0.792,0-1.563-0.127-2.329-0.243V382.382h165.125c3.958,0,7.17-3.207,7.17-7.159c0-3.953-3.212-7.165-7.17-7.165H357.396V324.13   h165.125c3.958,0,7.17-3.212,7.17-7.165c0-3.954-3.212-7.161-7.17-7.161H357.396v-42.562h165.125c3.958,0,7.17-3.21,7.17-7.161   c0-3.955-3.212-7.16-7.17-7.16H357.396v-42.973h88.83c3.952,0,7.17-3.207,7.17-7.16c0-3.955-3.218-7.157-7.17-7.157h-88.83V70.711   C358.162,70.599,358.929,70.476,359.726,70.476z M112.112,257.491l-28.851,0.462v90.282l-23.441-0.598v-89.286l-27.066,0.457   v-20.691l79.363-2.079v21.452H112.112z M186.706,350.824l-10.32-21.292c-4.189-8.157-6.877-14.221-10.047-20.941L166,308.57   c-2.344,6.699-5.155,12.657-8.638,20.657l-9.231,20.62l-28.187-0.693l31.643-57.371L121.044,235.8l28.419-0.735l9.705,20.78   c3.349,6.973,5.826,12.595,8.504,19.089l0.327,0.005c2.698-7.43,4.869-12.616,7.73-19.373l9.617-21.443l29.919-0.801l-32.62,57.747   l34.365,60.516L186.706,350.824z M318.1,254.066l-34.477,0.572v98.615l-27.924-0.713v-97.429l-32.2,0.535v-22.539l94.61-2.488   v23.446H318.1z"
   id="path2"
   style="fill:#535353;fill-opacity:1" />
</g>
<g
   id="g6">
</g>
<g
   id="g8">
</g>
<g
   id="g10">
</g>
<g
   id="g12">
</g>
<g
   id="g14">
</g>
<g
   id="g16">
</g>
<g
   id="g18">
</g>
<g
   id="g20">
</g>
<g
   id="g22">
</g>
<g
   id="g24">
</g>
<g
   id="g26">
</g>
<g
   id="g28">
</g>
<g
   id="g30">
</g>
<g
   id="g32">
</g>
<g
   id="g34">
</g>
</svg>